Coordinates
version=1
nRows=7
nColumns=38
inDegrees=yes

Units are S.I. units (second, meters, Newtons, ...)
Angles are in degrees.

endheader
time	pelvis_tilt	pelvis_list	pelvis_rotation	pelvis_tx	pelvis_ty	pelvis_tz	hip_flexion_r	hip_adduction_r	hip_rotation_r	knee_angle_r	ankle_angle_r	subtalar_angle_r	mtp_angle_r	hip_flexion_l	hip_adduction_l	hip_rotation_l	knee_angle_l	ankle_angle_l	subtalar_angle_l	mtp_angle_l	lumbar_extension	lumbar_bending	lumbar_rotation	arm_flex_r	arm_add_r	arm_rot_r	elbow_flex_r	pro_sup_r	wrist_flex_r	wrist_dev_r	arm_flex_l	arm_add_l	arm_rot_l	elbow_flex_l	pro_sup_l	wrist_flex_l	wrist_dev_l
      2.35000000	      1.07787247	     -6.73703594	      2.12140664	     -0.34591106	      0.90327129	      0.25663629	     19.80085217	     10.56726381	     -5.42025471	    -26.78428397	      0.27611621	     -7.87640125	      4.65547645	      1.61305900	     -6.23550099	      4.64040299	    -58.75652580	    -14.36778469	      3.48998031	     18.96161109	     -4.52415571	      9.94071322	     -6.61624325	     -7.11641173	    -17.88300173	     11.94884076	     21.20899280	     86.51662706	      0.00000000	      0.00000000	     -3.18575736	    -14.98330652	     12.12457604	     29.25949034	     85.94366927	      0.00000000	      0.00000000
      2.36000000	      1.14991103	     -6.66243400	      2.45211622	     -0.33386105	      0.90542300	      0.25708868	     18.53693952	     10.44717276	     -5.98169406	    -26.23005903	      1.20604956	     -7.00809697	      4.26389019	      3.64481978	     -5.84203831	      5.35095109	    -60.65137469	    -12.73463361	      2.88609002	     18.41356389	     -4.71635875	      9.86658219	     -6.47025587	     -6.83864895	    -18.03537231	     12.12186199	     21.87318412	     86.51662706	      0.00000000	      0.00000000	     -3.07488201	    -14.89809395	     12.71567962	     28.70409763	     85.94366927	      0.00000000	      0.00000000
      2.37000000	      1.19944098	     -6.50331078	      2.75452723	     -0.32186134	      0.90762802	      0.25754694	     17.25613346	     10.25434425	     -6.53703551	    -25.59667462	      2.04248330	     -6.12514888	      3.91340963	      5.64556238	     -5.32201690	      6.00006608	    -62.14318723	    -11.03305281	      2.43123153	     18.10207497	     -4.88533443	      9.68749952	     -6.29785931	     -6.55917674	    -18.19061493	     12.30078827	     22.55691712	     86.51662706	      0.00000000	      0.00000000	     -2.98296467	    -14.83210685	     13.28951126	     28.14459422	     85.94366927	      0.00000000	      0.00000000
      2.38000000	      1.22420737	     -6.27048026	      3.00575505	     -0.30983632	      0.90984879	      0.25803565	     15.96645218	     10.01026083	     -7.02610918	    -24.90788616	      2.79479909	     -5.26697065	      3.60680599	      7.59331662	     -4.70964388	      6.54822549	    -63.22697219	     -9.34939906	      2.08316545	     17.98788866	     -5.02620840	      9.41619141	     -6.08316518	     -6.28199801	    -18.34766035	     12.47654771	     23.25646544	     86.51662706	      0.00000000	      0.00000000	     -2.93092297	    -14.78089063	     13.81751449	     27.59587013	     85.94366927	      0.00000000	      0.00000000
      2.39000000	      1.22418656	     -5.97664880	      3.18964974	     -0.29776233	      0.91205099	      0.25857669	     14.67407270	      9.73424283	     -7.39447788	    -24.18289996	      3.47296137	     -4.47073756	      3.34209143	      9.47305235	     -4.04455808	      6.95957238	    -63.90945551	     -7.73528339	      1.78497779	     18.01201075	     -5.13938846	      9.06846277	     -5.81551340	     -6.00892095	    -18.50626406	     12.63895939	     23.96997722	     86.51662706	      0.00000000	      0.00000000	     -2.93161292	    -14.73943368	     14.27606241	     27.07038571	     85.94366927	      0.00000000	      0.00000000
      2.40000000	      1.20150585	     -5.63595643	      3.29588743	     -0.28565405	      0.91419623	      0.25919532	     13.38525617	      9.44333104	     -7.60125817	    -23.43568653	      4.08668527	     -3.76796793	      3.11351293	     11.27605025	     -3.36635773	      7.20766509	    -64.20419704	     -6.21756730	      1.47735229	     18.10478159	     -5.22931802	      8.66113847	     -5.48996447	     -5.73957574	    -18.66748423	     12.77815686	     24.69702098	     86.51662706	      0.00000000	      0.00000000	     -2.98913558	    -14.70296845	     14.64851683	     26.57627779	     85.94366927	      0.00000000	      0.00000000
      2.41000000	      1.16021147	     -5.26329119	      3.31957476	     -0.27354189	      0.91623094	      0.25992437	     12.10669294	      9.15224989	     -7.62516041	    -22.67601964	      4.64573368	     -3.18098333	      2.91293927	     12.99715710	     -2.70921568	      7.28075331	    -64.12850039	     -4.80987474	      1.10969743	     18.19493302	     -5.30256001	      8.21102954	     -5.10687651	     -5.47190176	    -18.83370573	     12.88594650	     25.43788192	     86.51662706	      0.00000000	      0.00000000	     -3.09998529	    -14.66773982	     14.92637943	     26.11634522	     85.94366927	      0.00000000	      0.00000000
